<?xml version="1.0" standalone="no"?>
<!DOCTYPE svg PUBLIC "-//W3C//DTD SVG 20010904//EN"
 "http://www.w3.org/TR/2001/REC-SVG-20010904/DTD/svg10.dtd">
<svg version="1.0" xmlns="http://www.w3.org/2000/svg"
 width="300.000000pt" height="300.000000pt" viewBox="0 0 300.000000 300.000000"
 preserveAspectRatio="xMidYMid meet">
<metadata>
Created by potrace 1.11, written by Peter Selinger 2001-2013
</metadata>
<g transform="translate(0.000000,300.000000) scale(0.100000,-0.100000)"
fill="#000000" stroke="none">
<path d="M1465 2847 c-19 -30 -35 -294 -35 -600 l0 -227 -182 2 -183 3 -8 135
c-18 314 -50 465 -115 540 -29 34 -40 41 -66 38 l-31 -3 1 -75 c1 -49 13 -127
37 -225 54 -222 60 -282 61 -575 0 -216 -5 -318 -27 -550 -35 -367 -50 -478
-93 -715 -15 -82 -28 -175 -28 -205 -1 -55 -1 -55 31 -58 25 -3 35 2 49 22 38
60 88 331 129 701 37 343 48 440 50 443 3 4 314 32 358 32 l38 0 -3 -137 -3
-138 -65 0 -65 0 -3 40 c-4 41 -25 75 -48 75 -18 0 -49 -55 -68 -119 -31 -106
-8 -328 44 -432 31 -61 85 -125 132 -157 36 -23 51 -26 152 -30 97 -4 119 -2
159 16 25 11 53 33 63 49 9 15 25 40 35 54 10 15 28 56 41 90 19 56 22 85 22
229 1 180 -8 229 -51 280 -39 47 -57 37 -63 -35 l-5 -60 -80 0 -80 0 -3 138
-3 138 118 -6 c65 -3 159 -8 209 -11 l91 -6 12 -141 c14 -167 45 -504 61 -667
13 -127 46 -277 82 -367 21 -50 27 -58 48 -55 14 1 28 6 33 11 4 4 -6 113 -22
242 -17 129 -47 383 -68 564 -36 324 -37 338 -37 725 -1 387 0 398 26 550 15
85 32 171 38 190 20 71 3 137 -42 161 -32 17 -41 -2 -79 -171 l-33 -150 -136
0 c-74 0 -173 3 -219 7 l-83 6 8 76 c5 42 9 126 9 186 0 126 -12 161 -62 182
-30 12 -34 11 -48 -10z m429 -574 l77 -6 -6 -66 c-3 -36 -8 -93 -11 -125 l-7
-59 -105 7 c-58 3 -147 6 -199 6 l-93 0 0 110 c0 79 4 112 13 115 45 18 224
28 331 18z m-444 -513 l0 -120 -195 0 -196 0 3 113 3 112 100 6 c55 3 142 6
193 7 l92 2 0 -120z m504 83 c3 -21 6 -75 6 -121 l0 -84 -197 7 c-109 4 -199
8 -200 9 -1 1 -5 52 -9 114 l-7 112 200 0 200 0 7 -37z m-274 -720 l63 -6 -6
-106 c-7 -124 -20 -175 -51 -206 -19 -19 -38 -24 -124 -30 -136 -10 -163 3
-211 99 -29 57 -35 81 -39 151 l-4 83 43 6 c89 12 106 13 185 15 45 0 109 -2
144 -6z"/>
</g>
</svg>
